PERFORMER "Kris Menace"
TITLE "Essential Mix (2008-07-26) (Hour 1) [TMB]"
FILE "2008-07-26 - EM - Kris Menace.mp3" MP3
  TRACK 01 AUDIO
    PERFORMER "Essential Mix"
    TITLE "Intro"
    INDEX 01 00:00:00
  TRACK 02 AUDIO
    PERFORMER "Music Cargo"
    TITLE "Ich Geh Den Weg"
    INDEX 01 01:24:40
  TRACK 03 AUDIO
    PERFORMER "Badly Drawn Boy"
    TITLE "Promises"
    INDEX 01 03:32:40
  TRACK 04 AUDIO
    PERFORMER "Wagon Cooking"
    TITLE "Mallorca (Sasse Remix Edit)"
    INDEX 01 06:17:00
  TRACK 05 AUDIO
    PERFORMER "House Less"
    TITLE "Traibar"
    INDEX 01 07:47:30
  TRACK 06 AUDIO
    PERFORMER "Chicken Lips"
    TITLE "He’s Not In (Edit)"
    INDEX 01 08:31:00
  TRACK 07 AUDIO
    PERFORMER "Man Parrish"
    TITLE "Hip Hop Be Bop (Lewis Dene Remix)"
    INDEX 01 09:46:70
  TRACK 08 AUDIO
    PERFORMER "Playgroup"
    TITLE "Number One (Blackstrobe Remix)"
    INDEX 01 11:24:000
  TRACK 09 AUDIO
    PERFORMER "Acid Phase vs. Stekker Humanoid"
    TITLE "Feadz (Remix Edit)"
    INDEX 01 13:01:70
  TRACK 10 AUDIO
    PERFORMER "Attention Deficit"
    TITLE "What (Edit)"
    INDEX 01 15:01:00
  TRACK 11 AUDIO
    PERFORMER "Dexter"
    TITLE "Acid Lullaby vs. Attention Deficit – What (Edit)"
    INDEX 01 18:38:00
  TRACK 12 AUDIO
    PERFORMER "Emmanuel Top"
    TITLE "Stress (Edit) vs. LFO – LFO (KM Edit)"
    INDEX 01 19:24:00
  TRACK 13 AUDIO
    PERFORMER "Adam Freeland"
    TITLE "Hate"
    INDEX 01 21:01:00
  TRACK 14 AUDIO
    PERFORMER "Duoteque"
    TITLE "Adyra (Edit)"
    INDEX 01 26:49:00
  TRACK 15 AUDIO
    PERFORMER "Munk feat. Asia Argento"
    TITLE "Die Old Live Young (Edit)"
    INDEX 01 27:34:00
  TRACK 16 AUDIO
    PERFORMER "Congress"
    TITLE "Better Grooves (KM Remix)"
    INDEX 01 30:04:00
  TRACK 17 AUDIO
    PERFORMER "Hard-Fi"
    TITLE "Suburban Knights (Remix)"
    INDEX 01 33:30:00
  TRACK 18 AUDIO
    PERFORMER "Spooky & Kris Menace"
    TITLE "Stereophonic"
    INDEX 01 38:27:00
  TRACK 19 AUDIO
    PERFORMER "Lifelike & Kris Menace"
    TITLE "Discopolis (Edit)"
    INDEX 01 40:37:60
  TRACK 20 AUDIO
    PERFORMER "The Clash"
    TITLE "Rock Da Casbar (KM Edit)"
    INDEX 01 41:59:00
  TRACK 21 AUDIO
    PERFORMER "Eurofunk"
    TITLE "Manshortage (KM Edit)"
    INDEX 01 43:44:00
  TRACK 22 AUDIO
    PERFORMER "Principles Of Geometry starring Sebastien Tellier"
    TITLE "A Mountain For President (Joakim Remix)"
    INDEX 01 45:59:00
  TRACK 23 AUDIO
    PERFORMER "Lucy"
    TITLE "Downstairs"
    INDEX 01 47:48:00
  TRACK 24 AUDIO
    PERFORMER "Soccio"
    TITLE "Remember (Santiagos Edit) vs. Kraftwerk – Robots (Edit)"
    INDEX 01 50:28:00
  TRACK 25 AUDIO
    PERFORMER "Still Going"
    TITLE "Still Going (Edit)"
    INDEX 01 53:25:00
  TRACK 26 AUDIO
    PERFORMER "Aphex Twin"
    TITLE "Window Licker (Edit)"
    INDEX 01 56:13:00
  TRACK 27 AUDIO
    PERFORMER "Crystal Castles"
    TITLE "Air War (CFCF Remix)"
    INDEX 01 58:20:00
  TRACK 28 AUDIO
    PERFORMER "Charlie Fanclub"
    TITLE "Jet (Edit)"
    INDEX 01 60:39:00
  TRACK 29 AUDIO
    PERFORMER "Stardust"
    TITLE "Music Sounds Better (Alan Braxe & Kris Menace Remix)"
    INDEX 01 62:16:00